<svg xmlns="http://www.w3.org/2000/svg" xmlns:xlink="http://www.w3.org/1999/xlink" width="100" height="100" x="0" y="0" fill="#7d849f" version="1.1" viewBox="-205 207 100 100" style="enable-background:new -205 207 100 100" xml:space="preserve"><g><g><path d="M-187.7,255.3h46.8l-10-10l2.4-2.4l14,14l-14,14l-2.4-2.4l10-10h-46.8V255.3z M-122,276.5v-39 c0-7.4-6-13.4-13.4-13.4h-39c-7.4,0-13.4,6-13.4,13.4v8h3.3v-8c0-5.6,4.5-10.1,10.1-10.1h39c5.6,0,10.1,4.5,10.1,10.1v39 c0,5.6-4.5,10.1-10.1,10.1h-39c-5.6,0-10.1-4.5-10.1-10.1v-7.9h-3.3v7.9c0,7.4,6,13.4,13.4,13.4h39 C-128.1,290-122,283.9-122,276.5z"/></g></g></svg>